<mxfile host="app.diagrams.net" agent="Mozilla/5.0 (Windows NT 10.0; Win64; x64) AppleWebKit/537.36 (KHTML, like Gecko) Chrome/128.0.0.0 YaBrowser/24.10.0.0 Safari/537.36" version="24.8.3">
  <diagram name="Страница — 1" id="S5MzvMZrTScGw0tausEI">
    <mxGraphModel dx="1484" dy="686" grid="1" gridSize="10" guides="1" tooltips="1" connect="1" arrows="1" fold="1" page="1" pageScale="1" pageWidth="1169" pageHeight="827" math="0" shadow="0">
      <root>
        <mxCell id="0" />
        <mxCell id="1" parent="0" />
        <mxCell id="R1eZSeu9fIotGPMjuUJf-1" value="" style="rounded=1;whiteSpace=wrap;html=1;" vertex="1" parent="1">
          <mxGeometry x="120" y="90" width="160" height="270" as="geometry" />
        </mxCell>
        <mxCell id="R1eZSeu9fIotGPMjuUJf-2" value="Проверка полученных данных:&lt;br&gt;user_ID&amp;gt;0&lt;br&gt;sim_rate&amp;gt;0&lt;div&gt;user_number&amp;gt;0&lt;/div&gt;&lt;div&gt;user_email = mask&lt;/div&gt;&lt;div&gt;user_email = 1&lt;br&gt;&lt;br&gt;Принадлежит существующему пользователю&lt;br&gt;Выбран существующий/доступный пользователю тариф&lt;/div&gt;&lt;div&gt;Проверка на корректность номера&amp;nbsp;&lt;/div&gt;&lt;div&gt;Проверка на корректность и уникальность email&lt;br&gt;&lt;br&gt;&lt;/div&gt;" style="rounded=1;whiteSpace=wrap;html=1;" vertex="1" parent="1">
          <mxGeometry x="360" y="90" width="240" height="270" as="geometry" />
        </mxCell>
        <mxCell id="R1eZSeu9fIotGPMjuUJf-3" value="&lt;div&gt;&lt;br&gt;&lt;/div&gt;&lt;div&gt;&lt;br&gt;&lt;/div&gt;&lt;div&gt;&lt;br&gt;&lt;/div&gt;Обновление информации о пользователе, добавляя новую eSIM и связывая ее с учетной записью пользователя" style="shape=cylinder3;whiteSpace=wrap;html=1;boundedLbl=1;backgroundOutline=1;size=15;" vertex="1" parent="1">
          <mxGeometry x="680" y="110" width="180" height="230" as="geometry" />
        </mxCell>
        <mxCell id="R1eZSeu9fIotGPMjuUJf-4" value="" style="endArrow=classic;startArrow=classic;html=1;rounded=0;exitX=1;exitY=0.5;exitDx=0;exitDy=0;entryX=0;entryY=0.5;entryDx=0;entryDy=0;" edge="1" parent="1" source="R1eZSeu9fIotGPMjuUJf-1" target="R1eZSeu9fIotGPMjuUJf-2">
          <mxGeometry width="50" height="50" relative="1" as="geometry">
            <mxPoint x="390" y="380" as="sourcePoint" />
            <mxPoint x="440" y="330" as="targetPoint" />
          </mxGeometry>
        </mxCell>
        <mxCell id="R1eZSeu9fIotGPMjuUJf-15" value="&lt;font style=&quot;font-size: 16px;&quot;&gt;&lt;b&gt;1&lt;/b&gt;&lt;/font&gt;" style="edgeLabel;html=1;align=center;verticalAlign=middle;resizable=0;points=[];" vertex="1" connectable="0" parent="R1eZSeu9fIotGPMjuUJf-4">
          <mxGeometry x="-0.0368" relative="1" as="geometry">
            <mxPoint as="offset" />
          </mxGeometry>
        </mxCell>
        <mxCell id="R1eZSeu9fIotGPMjuUJf-6" value="" style="endArrow=classic;startArrow=classic;html=1;rounded=0;exitX=1;exitY=0.5;exitDx=0;exitDy=0;entryX=0;entryY=0.5;entryDx=0;entryDy=0;" edge="1" parent="1">
          <mxGeometry width="50" height="50" relative="1" as="geometry">
            <mxPoint x="600" y="224.5" as="sourcePoint" />
            <mxPoint x="680" y="224.5" as="targetPoint" />
          </mxGeometry>
        </mxCell>
        <mxCell id="R1eZSeu9fIotGPMjuUJf-16" value="&lt;font style=&quot;font-size: 14px;&quot;&gt;&lt;b&gt;2&lt;/b&gt;&lt;/font&gt;" style="edgeLabel;html=1;align=center;verticalAlign=middle;resizable=0;points=[];" vertex="1" connectable="0" parent="R1eZSeu9fIotGPMjuUJf-6">
          <mxGeometry x="-0.0105" relative="1" as="geometry">
            <mxPoint as="offset" />
          </mxGeometry>
        </mxCell>
        <mxCell id="R1eZSeu9fIotGPMjuUJf-7" value="" style="ellipse;whiteSpace=wrap;html=1;" vertex="1" parent="1">
          <mxGeometry x="185" y="310" width="30" height="30" as="geometry" />
        </mxCell>
        <mxCell id="R1eZSeu9fIotGPMjuUJf-8" value="&lt;b&gt;&lt;font style=&quot;font-size: 16px;&quot;&gt;PG&lt;/font&gt;&lt;/b&gt;" style="text;html=1;align=center;verticalAlign=middle;whiteSpace=wrap;rounded=0;" vertex="1" parent="1">
          <mxGeometry x="740" y="160" width="60" height="30" as="geometry" />
        </mxCell>
        <mxCell id="R1eZSeu9fIotGPMjuUJf-9" value="&lt;b&gt;US&lt;/b&gt;:&lt;div&gt;Я, как пользователь мобильного приложения &quot;Мой Билайн&quot; хочу иметь возможность подключать eSIM в один клик, чтобы сэкономить время, избежать лишних действий и иметь доступ к новой сим-карте в течение нескольких минут.&lt;/div&gt;" style="text;html=1;align=left;verticalAlign=middle;whiteSpace=wrap;rounded=0;" vertex="1" parent="1">
          <mxGeometry x="120" y="20" width="710" height="30" as="geometry" />
        </mxCell>
        <mxCell id="R1eZSeu9fIotGPMjuUJf-10" value="Установка профиля eSIM" style="rounded=1;whiteSpace=wrap;html=1;fillColor=#d5e8d4;strokeColor=#82b366;" vertex="1" parent="1">
          <mxGeometry x="140" y="140" width="120" height="35" as="geometry" />
        </mxCell>
        <mxCell id="R1eZSeu9fIotGPMjuUJf-17" value="&lt;b&gt;&lt;font style=&quot;font-size: 14px;&quot;&gt;А&lt;/font&gt;&lt;/b&gt;" style="text;html=1;align=center;verticalAlign=middle;whiteSpace=wrap;rounded=0;" vertex="1" parent="1">
          <mxGeometry x="170" y="60" width="60" height="30" as="geometry" />
        </mxCell>
        <mxCell id="R1eZSeu9fIotGPMjuUJf-18" value="&lt;span style=&quot;font-size: 14px;&quot;&gt;&lt;b&gt;B&lt;/b&gt;&lt;/span&gt;" style="text;html=1;align=center;verticalAlign=middle;whiteSpace=wrap;rounded=0;" vertex="1" parent="1">
          <mxGeometry x="450" y="60" width="60" height="30" as="geometry" />
        </mxCell>
        <mxCell id="R1eZSeu9fIotGPMjuUJf-19" value="&lt;b&gt;&lt;font style=&quot;font-size: 14px;&quot;&gt;C&lt;/font&gt;&lt;/b&gt;" style="text;html=1;align=center;verticalAlign=middle;whiteSpace=wrap;rounded=0;" vertex="1" parent="1">
          <mxGeometry x="740" y="80" width="60" height="30" as="geometry" />
        </mxCell>
        <mxCell id="R1eZSeu9fIotGPMjuUJf-20" value="А - фронтенд, мобильное приложение&lt;div&gt;B - бэкенд/сервер&lt;/div&gt;&lt;div&gt;C - реляционная база данных, PG&lt;br&gt;&lt;br&gt;1 - протокол взаимодействия WebSocket (двусторонняя связь для постоянного обмена сообщениями клиента и сервера)&lt;/div&gt;&lt;div&gt;2 - протокол взаимодействия HTTPS (периодическое соединение формата «запрос – ответ»)&lt;/div&gt;" style="text;html=1;align=left;verticalAlign=middle;whiteSpace=wrap;rounded=0;" vertex="1" parent="1">
          <mxGeometry x="120" y="384" width="500" height="116" as="geometry" />
        </mxCell>
      </root>
    </mxGraphModel>
  </diagram>
</mxfile>
